<svg xmlns="http://www.w3.org/2000/svg" width="1600" height="560" viewBox="0 0 1600 560" role="img" aria-labelledby="title desc">
  <title id="title">Adversarial Humanities Benchmark header</title>
  <desc id="desc">A humanities versus machine intelligence scene with manuscript, rhetoric, circuits, and benchmark scoring motifs.</desc>
  <defs>
    <linearGradient id="paper" x1="0" y1="0" x2="1" y2="1">
      <stop offset="0" stop-color="#f8f0df"/>
      <stop offset="1" stop-color="#d8bea0"/>
    </linearGradient>
    <linearGradient id="machine" x1="0" y1="0" x2="1" y2="1">
      <stop offset="0" stop-color="#111827"/>
      <stop offset="1" stop-color="#253142"/>
    </linearGradient>
    <linearGradient id="rift" x1="0" y1="0" x2="0" y2="1">
      <stop offset="0" stop-color="#8d1f2d"/>
      <stop offset="0.5" stop-color="#d0a45c"/>
      <stop offset="1" stop-color="#5aa7c8"/>
    </linearGradient>
    <filter id="shadow" x="-20%" y="-20%" width="140%" height="140%">
      <feDropShadow dx="0" dy="18" stdDeviation="22" flood-color="#000000" flood-opacity="0.22"/>
    </filter>
    <pattern id="paperLines" width="88" height="88" patternUnits="userSpaceOnUse">
      <path d="M0 20H88M0 52H88" stroke="#8d6b4d" stroke-width="1" opacity="0.18"/>
      <path d="M18 0V88M58 0V88" stroke="#8d6b4d" stroke-width="1" opacity="0.1"/>
    </pattern>
    <pattern id="grid" width="72" height="72" patternUnits="userSpaceOnUse">
      <path d="M0 0H72V72" fill="none" stroke="#84d8ff" stroke-width="1" opacity="0.18"/>
      <circle cx="0" cy="0" r="2.5" fill="#84d8ff" opacity="0.32"/>
    </pattern>
  </defs>

  <rect width="1600" height="560" fill="#f7f3ea"/>
  <path d="M0 0H820L735 560H0Z" fill="url(#paper)"/>
  <path d="M780 0H1600V560H700Z" fill="url(#machine)"/>
  <path d="M0 0H820L735 560H0Z" fill="url(#paperLines)"/>
  <path d="M780 0H1600V560H700Z" fill="url(#grid)"/>

  <g opacity="0.26" fill="none" stroke="#7d5035" stroke-width="4">
    <path d="M100 118H432M100 158H510M100 198H462M100 238H540"/>
    <path d="M142 400C204 348 260 348 318 400C376 452 434 452 498 400"/>
    <path d="M182 88C214 128 214 168 182 208C150 168 150 128 182 88Z"/>
  </g>

  <g opacity="0.48" fill="none" stroke="#9fdfff" stroke-width="4" stroke-linecap="round">
    <path d="M1072 118H1418M1072 184H1308M1072 250H1456M1072 316H1358"/>
    <path d="M1116 382H1248M1248 382V442M1248 442H1394"/>
    <path d="M1010 410H1062M1010 454H1132M1010 498H1088"/>
  </g>
  <g fill="#9fdfff" opacity="0.72">
    <circle cx="1072" cy="118" r="8"/>
    <circle cx="1308" cy="184" r="8"/>
    <circle cx="1456" cy="250" r="8"/>
    <circle cx="1248" cy="442" r="8"/>
    <circle cx="1394" cy="442" r="8"/>
  </g>

  <g filter="url(#shadow)">
    <path d="M754 52L817 127L760 192L829 259L742 346L808 422L724 528" fill="none" stroke="url(#rift)" stroke-width="14" stroke-linecap="round" stroke-linejoin="round"/>
    <circle cx="800" cy="280" r="150" fill="#f7f3ea"/>
    <path d="M800 130A150 150 0 0 1 800 430Z" fill="#182232"/>
    <path d="M800 132C736 156 690 214 690 280C690 346 736 404 800 428" fill="#efe2c6"/>
    <path d="M800 132C864 156 910 214 910 280C910 346 864 404 800 428" fill="#182232"/>
    <path d="M730 245C748 224 772 224 790 245" fill="none" stroke="#5e3d2f" stroke-width="10" stroke-linecap="round"/>
    <path d="M810 245H862M836 245V205M836 245V294M836 294H884" fill="none" stroke="#9fdfff" stroke-width="10" stroke-linecap="round" stroke-linejoin="round"/>
    <circle cx="836" cy="205" r="10" fill="#9fdfff"/>
    <circle cx="884" cy="294" r="10" fill="#9fdfff"/>
    <path d="M740 338C770 362 830 362 862 338" fill="none" stroke="#a06442" stroke-width="9" stroke-linecap="round"/>
    <path d="M800 144V416" fill="none" stroke="#d0a45c" stroke-width="5" opacity="0.9"/>
  </g>

  <g filter="url(#shadow)">
    <path d="M164 344C254 314 344 314 434 344V458C344 428 254 428 164 458Z" fill="#fff8e8" stroke="#7d5035" stroke-width="5"/>
    <path d="M434 344C524 314 614 314 704 344V458C614 428 524 428 434 458Z" fill="#f0dfbe" stroke="#7d5035" stroke-width="5"/>
    <path d="M434 344V458" stroke="#7d5035" stroke-width="5"/>
    <path d="M218 376H382M218 406H360M494 376H656M494 406H632" stroke="#7d5035" stroke-width="7" stroke-linecap="round" opacity="0.55"/>
    <path d="M600 150C532 204 514 256 546 306C600 246 650 208 744 174C684 174 638 164 600 150Z" fill="#8d1f2d" opacity="0.88"/>
    <path d="M546 306C582 258 628 218 744 174" stroke="#f8e9ca" stroke-width="7" stroke-linecap="round"/>
  </g>

  <g filter="url(#shadow)">
    <rect x="1010" y="134" width="404" height="250" rx="22" fill="#0f1724" stroke="#9fdfff" stroke-width="4"/>
    <path d="M1068 206L1118 250L1068 294M1162 302H1298" fill="none" stroke="#9fdfff" stroke-width="12" stroke-linecap="round" stroke-linejoin="round"/>
    <path d="M1348 180H1390V222H1348ZM1348 292H1390V334H1348Z" fill="none" stroke="#d0a45c" stroke-width="6"/>
    <path d="M1390 201H1442M1390 313H1442M1442 201V313" fill="none" stroke="#d0a45c" stroke-width="5" stroke-linecap="round"/>
  </g>

  <text x="122" y="82" fill="#7b1e2b" font-family="Georgia, 'Times New Roman', serif" font-size="36" letter-spacing="0">humanities as adversarial form</text>
  <text x="972" y="82" fill="#d7f0ff" font-family="Inter, Arial, sans-serif" font-size="36" font-weight="700" letter-spacing="0">machine safety under stress</text>
  <text x="800" y="510" text-anchor="middle" fill="#1f2937" font-family="Inter, Arial, sans-serif" font-size="34" font-weight="700" letter-spacing="0">AHB</text>
</svg>
